<svg version="1.1" id="Layer_1" xmlns="http://www.w3.org/2000/svg" xmlns:xlink="http://www.w3.org/1999/xlink" x="0px" y="0px"
	 viewBox="0 0 792 612" enable-background="new 0 0 792 612" xml:space="preserve">
<path fill="#1DBBBD" d="M639.4,199H502.4V61.9c0-18.5-14.5-32.9-32.9-32.9H321.9C303.4,29,289,43.4,289,61.9V199H151.9
	c-18.5,0-32.9,14.5-32.9,32.9v147.6c0,18.5,14.5,32.9,32.9,32.9H289v137.1c0,18.5,14.5,32.9,32.9,32.9h147.6
	c18.2,0,32.9-14.8,32.9-32.9V412.4h137.1c18.5,0,32.9-14.5,32.9-32.9V231.9C672.4,213.4,657.9,199,639.4,199z M650.7,379.4
	c0,7.1-5.6,12.6-12.6,12.6H481.4v156c0,7.1-5.6,12.6-12.6,12.6H321.2c-7.1,0-12.6-5.6-12.6-12.6V391.4H151.9
	c-7.1,0-12.6-5.6-12.6-12.6V231.2c0-7.1,5.6-12.6,12.6-12.6h157.4V61.9c0-7.1,5.6-12.6,12.6-12.6h147.6c7.1,0,12.6,5.6,12.6,12.6
	v157.4h156c7.1,0,12.6,5.6,12.6,12.6V379.4z"/>
</svg>
