<svg xmlns="http://www.w3.org/2000/svg" xmlns:xlink="http://www.w3.org/1999/xlink" version="1.1" x="0px" y="0px" viewBox="0 0 100 100" enable-background="new 0 0 100 100" xml:space="preserve"><path d="M82.661,30.182c-4.144-3.991-9.545-6.015-16.054-6.015c-9.032,0-16.946,3.915-17.278,4.082  c-0.116,0.059-0.22,0.134-0.315,0.218c-5.069-3.758-11.767-5.087-19.547-3.844c-6.562,1.047-11.55,3.521-11.759,3.626  c-0.507,0.254-0.828,0.773-0.828,1.341v43.07c0,0.537,0.288,1.033,0.754,1.301c0.466,0.269,1.04,0.266,1.504-0.006  c0.187-0.109,18.828-10.805,29.822-0.215c0.018,0.017,0.041,0.022,0.059,0.038c0.062,0.055,0.122,0.112,0.194,0.157  c0.054,0.033,0.113,0.052,0.171,0.077c0.038,0.018,0.073,0.037,0.112,0.052c0.155,0.056,0.315,0.088,0.479,0.091  c0.009,0,0.018,0.005,0.026,0.005c0.102,0,0.204-0.012,0.304-0.032c0.012-0.002,0.021-0.007,0.033-0.01  c0.102-0.023,0.2-0.059,0.297-0.104c0.012-0.005,0.025-0.007,0.037-0.013c0.075-0.038,7.633-3.765,15.935-3.765  c5.706,0,10.408,1.742,13.973,5.176c0.285,0.275,0.66,0.42,1.041,0.42c0.198,0,0.397-0.039,0.587-0.119  c0.554-0.236,0.913-0.779,0.913-1.381V31.262C83.12,30.854,82.954,30.464,82.661,30.182z M29.375,66.875  c-3.987,0.896-7.391,2.315-9.495,3.319V30.553c3.693-1.607,18.878-7.377,28.621,1.376v37.598  C43.471,66.103,36.934,65.175,29.375,66.875z M80.12,71.16c-3.73-2.604-8.262-3.923-13.514-3.923  c-6.321,0-12.096,1.919-15.105,3.127V30.55c2.182-0.956,8.383-3.383,15.106-3.383c5.465,0,10.007,1.596,13.513,4.748V71.16z"/></svg>