<?xml version="1.0" encoding="utf-8"?>
<!-- Generator: Adobe Illustrator 18.1.1, SVG Export Plug-In . SVG Version: 6.00 Build 0)  -->
<svg version="1.1" id="Layer_1" xmlns="http://www.w3.org/2000/svg" xmlns:xlink="http://www.w3.org/1999/xlink" x="0px" y="0px"
	 viewBox="0 0 782 524" enable-background="new 0 0 782 524" xml:space="preserve">
<path fill="#FFFFFF" d="M775.5,13.8c0-0.2,0-0.3,0-0.5c0-0.1,0-0.2,0-0.4c0-0.2,0-0.3-0.1-0.5c0-0.1-0.1-0.3-0.1-0.4
	c0-0.1-0.1-0.3-0.1-0.4c0-0.1-0.1-0.3-0.1-0.4c0-0.1-0.1-0.3-0.1-0.4c-0.1-0.1-0.1-0.3-0.2-0.4c-0.1-0.1-0.1-0.2-0.2-0.3
	c-0.1-0.1-0.1-0.3-0.2-0.4c-0.1-0.1-0.1-0.2-0.2-0.3c-0.1-0.1-0.2-0.3-0.3-0.4c0-0.1-0.1-0.1-0.1-0.2c0,0-0.1-0.1-0.1-0.1
	c-0.1-0.1-0.2-0.2-0.3-0.4c-0.1-0.1-0.2-0.2-0.3-0.3c-0.1-0.1-0.2-0.2-0.3-0.3c-0.1-0.1-0.2-0.2-0.3-0.3c-0.1-0.1-0.2-0.1-0.3-0.2
	c-0.1-0.1-0.3-0.2-0.4-0.3c-0.1-0.1-0.2-0.1-0.3-0.2c-0.1-0.1-0.3-0.2-0.4-0.2c-0.1-0.1-0.2-0.1-0.3-0.2c-0.1-0.1-0.3-0.1-0.4-0.2
	c-0.1-0.1-0.3-0.1-0.4-0.2c-0.1,0-0.2-0.1-0.3-0.1c-0.1,0-0.3-0.1-0.4-0.1c-0.1,0-0.2-0.1-0.3-0.1c-0.1,0-0.3-0.1-0.4-0.1
	c-0.1,0-0.3,0-0.4-0.1c-0.1,0-0.3,0-0.4,0c-0.2,0-0.3,0-0.5,0c0,0-0.1,0-0.1,0H14.8c0,0-0.1,0-0.1,0c-0.2,0-0.3,0-0.5,0
	c-0.1,0-0.3,0-0.4,0c-0.1,0-0.3,0-0.4,0.1c-0.2,0-0.3,0-0.5,0.1c-0.1,0-0.2,0.1-0.3,0.1c-0.2,0-0.3,0.1-0.5,0.1C12,6,11.9,6,11.8,6
	c-0.1,0.1-0.3,0.1-0.4,0.2c-0.1,0.1-0.2,0.1-0.4,0.2c-0.1,0.1-0.2,0.1-0.4,0.2c-0.1,0.1-0.3,0.2-0.4,0.2C10.2,6.9,10.1,6.9,10,7
	C9.8,7.1,9.7,7.2,9.6,7.3C9.5,7.4,9.4,7.4,9.3,7.5C9.2,7.6,9.1,7.7,9,7.8C8.9,7.9,8.8,8,8.7,8.1C8.6,8.2,8.5,8.3,8.4,8.4
	C8.3,8.5,8.2,8.6,8.1,8.7c0,0-0.1,0.1-0.1,0.1C8,8.9,7.9,8.9,7.9,9C7.8,9.1,7.7,9.3,7.6,9.4C7.5,9.5,7.5,9.6,7.4,9.7
	C7.3,9.9,7.3,10,7.2,10.1c-0.1,0.1-0.1,0.2-0.2,0.4c-0.1,0.1-0.1,0.3-0.2,0.4c-0.1,0.1-0.1,0.3-0.1,0.4c0,0.1-0.1,0.3-0.1,0.4
	c0,0.1-0.1,0.3-0.1,0.4c0,0.1-0.1,0.3-0.1,0.4c0,0.2-0.1,0.3-0.1,0.5c0,0.1,0,0.2,0,0.4c0,0.2,0,0.3,0,0.5c0,0.1,0,0.2,0,0.2v492.2
	c0,4.7,3.8,8.5,8.5,8.5H767c4.7,0,8.5-3.8,8.5-8.5V14C775.5,13.9,775.5,13.8,775.5,13.8z M23.3,31.3l254.1,195.5L23.3,483.9V31.3z
	 M489.1,217.1c-1.1,0.4-2,1-2.9,1.9c-0.3,0.3-0.6,0.7-0.9,1.1l-94.5,72.7L39.7,22.5H742L489.1,217.1z M291,237.2l94.7,72.9
	c1.5,1.2,3.4,1.8,5.2,1.8s3.7-0.6,5.2-1.8l95.6-73.6l256.6,261.1H33.5L291,237.2z M505.2,226.1L758.5,31.3v452.6L505.2,226.1z"/>
</svg>
