<svg xmlns="http://www.w3.org/2000/svg" xmlns:xlink="http://www.w3.org/1999/xlink" version="1.1" x="0px" y="0px" viewBox="0 0 100 100" enable-background="new 0 0 100 100" xml:space="preserve"><g><path fill="#000000" d="M47,23.5c-0.2,0-0.5-0.1-0.7-0.3L24,2.4L1.7,23.2c-0.4,0.4-1,0.4-1.4,0c-0.4-0.4-0.4-1,0-1.4l23-21.5   c0.4-0.4,1-0.4,1.4,0l23,21.5c0.4,0.4,0.4,1,0,1.4C47.5,23.4,47.3,23.5,47,23.5z"/><path fill="#000000" d="M16.6,48H7.7c-0.6,0-1-0.4-1-1V16.5c0-0.6,0.4-1,1-1s1,0.4,1,1V46h7.9c0.6,0,1,0.4,1,1S17.2,48,16.6,48z"/><path fill="#000000" d="M40.3,48h-8.8c-0.6,0-1-0.4-1-1s0.4-1,1-1h7.8V16.5c0-0.6,0.4-1,1-1s1,0.4,1,1V47   C41.3,47.6,40.9,48,40.3,48z"/><path fill="#000000" d="M31.1,48c-0.6,0-1-0.4-1-1V32.8H17.9V47c0,0.6-0.4,1-1,1s-1-0.4-1-1V31.8c0-0.6,0.4-1,1-1h14.2   c0.6,0,1,0.4,1,1V47C32.1,47.6,31.7,48,31.1,48z"/></g></svg>