<?xml version="1.0" encoding="utf-8"?>
<!-- Generator: Adobe Illustrator 18.1.1, SVG Export Plug-In . SVG Version: 6.00 Build 0)  -->
<svg version="1.1" id="LF_logo_initials" xmlns="http://www.w3.org/2000/svg" xmlns:xlink="http://www.w3.org/1999/xlink" x="0px"
	 y="0px" viewBox="0 0 389.8 129.2" enable-background="new 0 0 389.8 129.2" xml:space="preserve">
<g id="goose">
	<g>
		<path d="M17.5,80.9c-0.6,0.2-1,0.7-1.2,1.3c-0.2,0.6-0.3,1.6-0.3,3v28c0,1,0.1,1.8,0.2,2.2c0.1,0.5,0.4,0.8,0.8,0.9
			c0.4,0.2,1,0.2,1.8,0.2h1.8c1.3,0,2.6-0.6,4.1-1.9c1.5-1.3,2.8-2.9,4-5s2-4.2,2.4-6.5h1.2c-0.1,1.3-0.2,3-0.2,5
			c0,3.9,0.1,7.2,0.4,9.7c-2.5-0.1-6.6-0.2-12.4-0.2c-8.5,0-14.8,0.1-19,0.2v-1.1c1.2-0.1,2-0.2,2.5-0.4c0.5-0.2,0.9-0.7,1.1-1.3
			c0.2-0.6,0.3-1.6,0.3-3V85.1c0-1.4-0.1-2.4-0.3-3c-0.2-0.6-0.6-1-1.1-1.3c-0.5-0.2-1.4-0.4-2.5-0.4v-1.1c2.1,0.1,5.3,0.2,9.7,0.2
			c4.2,0,7.4-0.1,9.6-0.2v1.1C19.1,80.5,18.1,80.7,17.5,80.9z"/>
		<path d="M45.6,115.2c0.2,0.6,0.5,1,1,1.2c0.4,0.2,1,0.3,1.8,0.3v1.1l-1,0c-2.6-0.1-4.8-0.2-6.7-0.2c-1.9,0-4.3,0.1-7.1,0.2l-1.1,0
			v-1.1c0.8,0,1.4-0.1,1.8-0.3c0.4-0.2,0.8-0.6,1-1.2c0.2-0.6,0.3-1.4,0.3-2.4V95.6c0-1.7-0.2-2.9-0.7-3.6c-0.5-0.8-1.2-1.1-2.4-1.1
			v-1.1c1.1,0.1,2.3,0.2,3.4,0.2c3.8,0,6.9-0.2,9.4-0.7v23.7C45.4,113.8,45.4,114.6,45.6,115.2z M44.5,76.5c1,0.8,1.5,2,1.5,3.5
			c0,1.5-0.5,2.7-1.5,3.5c-1,0.8-2.5,1.2-4.4,1.2c-1.9,0-3.4-0.4-4.4-1.2c-1-0.8-1.5-1.9-1.5-3.5c0-1.5,0.5-2.7,1.5-3.5
			c1-0.8,2.5-1.2,4.4-1.2C42,75.3,43.5,75.7,44.5,76.5z"/>
		<path d="M75.2,89.6v1.1c-0.7,0.3-1.4,0.8-2.1,1.6c-0.6,0.8-1.2,2-1.8,3.7L64,117.8c-0.9-0.1-1.8-0.1-2.6-0.1c-0.8,0-1.7,0-2.7,0.1
			l-9.4-24c-0.8-2-1.8-3.1-3.2-3.1v-1.1c2.9,0.2,6.1,0.3,9.7,0.3c1.8,0,4.2-0.1,7.1-0.3v1.1c-0.8,0-1.4,0-1.8,0.1
			c-0.4,0-0.7,0.2-1,0.4c-0.3,0.2-0.4,0.5-0.4,1c0,0.2,0,0.4,0.1,0.7l5.9,16.4l2.5-7.5c0.7-2.1,1-3.9,1-5.6c0-1.7-0.4-3-1.1-3.9
			c-0.7-0.9-1.7-1.4-2.9-1.5v-1.1c1.4,0.1,3.3,0.2,5.7,0.2C73,89.8,74.4,89.8,75.2,89.6z"/>
		<path d="M87.2,115.2c0.2,0.6,0.5,1,1,1.2c0.4,0.2,1,0.3,1.8,0.3v1.1l-1,0c-2.6-0.1-4.8-0.2-6.7-0.2c-1.9,0-4.3,0.1-7.1,0.2l-1.1,0
			v-1.1c0.8,0,1.4-0.1,1.8-0.3c0.4-0.2,0.8-0.6,1-1.2c0.2-0.6,0.3-1.4,0.3-2.4V95.6c0-1.7-0.2-2.9-0.7-3.6c-0.5-0.8-1.2-1.1-2.4-1.1
			v-1.1c1.1,0.1,2.3,0.2,3.4,0.2c3.8,0,6.9-0.2,9.4-0.7v23.7C86.9,113.8,87,114.6,87.2,115.2z M86,76.5c1,0.8,1.5,2,1.5,3.5
			c0,1.5-0.5,2.7-1.5,3.5c-1,0.8-2.5,1.2-4.4,1.2c-1.9,0-3.4-0.4-4.4-1.2c-1-0.8-1.5-1.9-1.5-3.5c0-1.5,0.5-2.7,1.5-3.5
			c1-0.8,2.5-1.2,4.4-1.2C83.6,75.3,85,75.7,86,76.5z"/>
		<path d="M117.4,91c0.5,0.7,1,1.5,1.2,2.6c0.3,1.1,0.4,2.6,0.4,4.4v14.7c0,1,0.1,1.8,0.3,2.4c0.2,0.6,0.5,1,0.9,1.2
			c0.4,0.2,1,0.3,1.8,0.3v1.1l-1,0c-2.6-0.1-4.8-0.2-6.6-0.2c-1.9,0-4.1,0.1-6.7,0.2l-1,0v-1.1c0.6,0,1.1-0.1,1.5-0.3
			c0.4-0.2,0.6-0.6,0.8-1.2c0.2-0.6,0.2-1.3,0.2-2.4V95.1c0-1.2-0.2-2-0.6-2.6c-0.4-0.6-1.1-0.8-2-0.8c-0.7,0-1.3,0.2-1.9,0.5
			c-0.6,0.3-1.1,0.8-1.5,1.4c-0.4,0.6-0.6,1.3-0.6,2v17.2c0,1,0.1,1.8,0.2,2.4c0.2,0.6,0.4,1,0.8,1.2c0.4,0.2,0.9,0.3,1.5,0.3v1.1
			c-0.1,0-0.5,0-1-0.1c-3.1-0.1-5.2-0.2-6.2-0.2c-1.9,0-4.3,0.1-7.1,0.2l-1.1,0v-1.1c0.8,0,1.4-0.1,1.8-0.3c0.4-0.2,0.8-0.6,1-1.2
			c0.2-0.6,0.3-1.4,0.3-2.4V95.6c0-1.7-0.2-2.9-0.7-3.6c-0.5-0.8-1.2-1.1-2.4-1.1v-1.1c1.1,0.1,2.3,0.2,3.4,0.2
			c3.8,0,6.9-0.2,9.4-0.7V93c1.6-2.7,4.5-4.1,8.6-4.1C114.1,88.9,116.2,89.6,117.4,91z"/>
		<path d="M148.2,111.7c1.5,1,2.2,2.6,2.2,4.9c0,1.9-0.6,3.8-1.8,5.5c-1.2,1.8-3,3.2-5.4,4.3c-2.4,1.1-5.4,1.7-8.8,1.7
			c-3.1,0-5.6-0.2-7.5-0.7c-1.9-0.4-3.2-1-4-1.7c-0.8-0.7-1.2-1.4-1.2-2.2c0-0.7,0.2-1.2,0.6-1.6c0.4-0.4,0.9-0.6,1.4-0.8
			c0.6-0.1,1.3-0.3,2.3-0.4c1.2-0.1,2.2-0.3,2.9-0.5c0.7-0.2,1.3-0.6,1.7-1.1h-1.8c-0.9,0-1.9-0.2-2.9-0.5c-1-0.3-1.8-0.9-2.6-1.7
			c-0.7-0.8-1.1-2-1.1-3.5c0-1.2,0.2-2.3,0.7-3.2c0.5-0.9,1.2-1.7,2.2-2.5s2.4-1.6,4.2-2.4c-2.1-0.6-3.7-1.6-4.9-2.9
			c-1.2-1.3-1.7-3-1.7-5c0-1.9,0.5-3.5,1.6-4.8c1.1-1.3,2.6-2.3,4.5-2.9c1.9-0.6,4.1-1,6.6-1c1.3,0,2.3,0.1,3.3,0.2
			c0-0.5-0.1-0.9-0.1-1.1c0-2.2,0.5-3.9,1.5-5.2c1-1.3,2.6-2,4.6-2c1.3,0,2.5,0.3,3.4,1c0.9,0.6,1.3,1.5,1.3,2.7
			c0,0.7-0.2,1.3-0.6,1.8s-0.9,1-1.6,1.3c-0.7,0.3-1.4,0.5-2.3,0.5c-1.2,0-2.2-0.2-3-0.7c-0.8-0.5-1.4-1.2-1.9-2.1
			c-0.2,0.7-0.4,1.7-0.4,2.8c0,0.4,0,0.8,0.1,1.3c2.6,0.5,4.6,1.4,6.1,2.8c1.5,1.4,2.2,3.2,2.2,5.5c0,1.9-0.5,3.5-1.6,4.8
			c-1.1,1.3-2.6,2.3-4.5,2.9c-1.9,0.6-4.1,1-6.6,1c-1.8,0-3.5-0.2-5.1-0.5c-0.8,0.5-1.3,1-1.6,1.3c-0.3,0.4-0.5,0.8-0.5,1.4
			c0,1.2,0.6,1.8,1.9,1.8h12.3C144.8,110.2,146.7,110.7,148.2,111.7z M139.5,126.3c1.1-0.5,1.9-1.2,2.5-2.2c0.6-0.9,0.9-2,0.9-3.2
			c0-0.6-0.2-1-0.6-1.3c-0.4-0.3-1-0.4-1.9-0.4h-8.8c-0.2,0.5-0.4,1.1-0.5,1.8c-0.1,0.7-0.2,1.3-0.2,1.7c0,1.4,0.4,2.4,1.2,3.2
			c0.8,0.8,2.1,1.1,3.7,1.1C137.2,127.1,138.4,126.9,139.5,126.3z M133.3,91.6c-0.5,1.2-0.7,3.2-0.7,5.9c0,2.8,0.2,4.8,0.7,6
			c0.5,1.2,1.2,1.8,2.1,1.8c0.9,0,1.6-0.6,2.1-1.8c0.5-1.2,0.7-3.2,0.7-6c0-2.8-0.2-4.8-0.7-6c-0.5-1.2-1.2-1.8-2.1-1.8
			C134.5,89.8,133.8,90.4,133.3,91.6z"/>
		<path d="M190.1,88.5c0,1.7,0.1,3,0.2,3.9h-1.2c-0.9-4.2-2.2-7.2-4-9c-1.8-1.8-3.8-2.8-6-2.8h-0.7c-1,0-1.7,0.1-2.1,0.2
			c-0.4,0.2-0.7,0.5-0.9,0.9c-0.2,0.5-0.3,1.2-0.3,2.2v13.9h0.6c1.3,0,2.5-0.4,3.5-1.1c1-0.7,1.9-1.6,2.6-2.7
			c0.7-1.1,1.1-2.2,1.4-3.3h1.2c-0.1,2.1-0.2,3.9-0.2,5.3l0,2.4c0,1.6,0.1,4.1,0.3,7.7h-1.2c-0.2-1.4-0.7-2.6-1.4-3.7
			c-0.7-1.1-1.6-1.9-2.6-2.6c-1.1-0.6-2.3-0.9-3.6-0.9H175v12.5c0,1.5,0.2,2.6,0.5,3.3c0.3,0.7,0.9,1.2,1.7,1.4
			c0.8,0.2,2.1,0.3,3.9,0.3v1.2c-0.4,0-0.6,0-0.8,0c-4.2-0.1-7.6-0.1-10.4-0.1c-1.7,0-4,0-7.1,0.1l-2.7,0.1v-1.1
			c1.2-0.1,2-0.2,2.5-0.4c0.5-0.2,0.9-0.7,1.1-1.3c0.2-0.6,0.3-1.6,0.3-3V85.1c0-1.4-0.1-2.4-0.3-3c-0.2-0.6-0.6-1-1.1-1.3
			c-0.5-0.2-1.4-0.4-2.5-0.4v-1.1c4.2,0.1,10.5,0.2,19,0.2c5.3,0,9.1-0.1,11.4-0.2C190.3,82.8,190.1,85.8,190.1,88.5z"/>
		<path d="M214.3,90.5c0.8,1.1,1.2,2.4,1.2,3.9c0,1.6-0.5,2.9-1.4,3.9s-2.1,1.4-3.6,1.4c-1.6,0-2.8-0.3-3.6-1
			c-0.8-0.7-1.2-1.6-1.2-2.9c0-2.2,0.9-3.8,2.8-5.1c-0.7,0-1.2,0.1-1.8,0.4c-0.9,0.4-1.7,1-2.3,1.9c-0.6,0.9-0.9,1.9-0.9,2.9v16.3
			c0,1.1,0.2,2,0.5,2.7c0.3,0.6,0.8,1.1,1.5,1.4c0.7,0.3,1.6,0.4,2.7,0.4v1.1l-1.1,0c-3-0.1-5.5-0.2-7.6-0.2c-2.1,0-4.6,0.1-7.6,0.2
			l-1.1,0v-1.1c0.8,0,1.4-0.1,1.8-0.3c0.4-0.2,0.8-0.6,1-1.2c0.2-0.6,0.3-1.4,0.3-2.4V95.6c0-1.7-0.2-2.9-0.7-3.6
			c-0.5-0.8-1.2-1.1-2.4-1.1v-1.1c1.1,0.1,2.3,0.2,3.4,0.2c3.8,0,6.9-0.2,9.4-0.7V93c1.4-2.7,3.8-4.1,7-4.1
			C212.2,88.9,213.5,89.4,214.3,90.5z"/>
		<path d="M237.6,109l0.9,0.3c-0.5,1.6-1.3,3.1-2.2,4.5c-1,1.4-2.2,2.5-3.8,3.4c-1.5,0.9-3.3,1.3-5.4,1.3c-3.8,0-6.8-1.2-9.1-3.5
			c-2.3-2.4-3.4-6.1-3.4-11.3c0-3.4,0.6-6.2,1.8-8.4c1.2-2.2,2.9-3.9,4.9-4.9c2.1-1.1,4.5-1.6,7.2-1.6c6.8,0,10.3,4.1,10.3,12.2h-14
			c0,0.4-0.1,1.1-0.1,2c0,3.5,0.6,6,1.8,7.4c1.2,1.5,2.7,2.2,4.4,2.2C233.6,112.7,235.8,111.4,237.6,109z M225.8,92.5
			c-0.6,1.6-1,4.1-1.2,7.5h6.3c0-2.9-0.2-5.2-0.6-7.1c-0.5-1.8-1.2-2.8-2.1-2.8C227.2,90.1,226.4,90.9,225.8,92.5z"/>
		<path d="M262.7,109l0.9,0.3c-0.5,1.6-1.3,3.1-2.2,4.5c-1,1.4-2.2,2.5-3.8,3.4c-1.5,0.9-3.3,1.3-5.4,1.3c-3.8,0-6.8-1.2-9.1-3.5
			c-2.3-2.4-3.4-6.1-3.4-11.3c0-3.4,0.6-6.2,1.8-8.4c1.2-2.2,2.9-3.9,4.9-4.9c2.1-1.1,4.5-1.6,7.2-1.6c6.8,0,10.3,4.1,10.3,12.2h-14
			c0,0.4-0.1,1.1-0.1,2c0,3.5,0.6,6,1.8,7.4c1.2,1.5,2.7,2.2,4.4,2.2C258.8,112.7,261,111.4,262.7,109z M250.9,92.5
			c-0.6,1.6-1,4.1-1.2,7.5h6.3c0-2.9-0.2-5.2-0.6-7.1s-1.2-2.8-2.1-2.8C252.3,90.1,251.5,90.9,250.9,92.5z"/>
		<path d="M277.3,115.2c0.2,0.6,0.5,1,1,1.2c0.4,0.2,1,0.3,1.8,0.3v1.1l-1,0c-2.6-0.1-4.8-0.2-6.7-0.2c-1.9,0-4.3,0.1-7.1,0.2
			l-1.1,0v-1.1c0.8,0,1.4-0.1,1.8-0.3c0.4-0.2,0.8-0.6,1-1.2c0.2-0.6,0.3-1.4,0.3-2.4V81.9c0-1.7-0.2-2.9-0.7-3.6
			c-0.5-0.8-1.2-1.1-2.4-1.1V76c1.1,0.1,2.3,0.2,3.4,0.2c3.8,0,6.9-0.3,9.4-0.8v37.4C277,113.8,277.1,114.6,277.3,115.2z"/>
		<path d="M298.9,89.5c1.4,0.4,2.6,1.1,3.6,2.1c0.7,0.7,1.2,1.7,1.4,2.8c0.2,1.1,0.4,2.7,0.4,4.8v14.5c0,0.9,0.1,1.5,0.2,1.8
			c0.1,0.3,0.3,0.5,0.6,0.5c0.3,0,0.5-0.1,0.8-0.2s0.5-0.3,0.9-0.6l0.5,0.9c-0.8,0.7-1.8,1.2-3,1.5c-1.1,0.3-2.5,0.5-4.1,0.5
			c-1.9,0-3.3-0.4-4.2-1.2c-0.9-0.8-1.4-1.8-1.4-3c-0.8,1.3-1.8,2.3-3.2,3c-1.4,0.7-2.9,1.1-4.6,1.1c-2.1,0-3.8-0.6-5-1.7
			c-1.2-1.1-1.8-2.6-1.8-4.5c0-1.9,0.6-3.4,1.7-4.6c1.1-1.2,2.9-2.2,5.2-3c1.9-0.7,3.4-1.2,4.3-1.6c0.9-0.4,1.7-0.9,2.3-1.4
			c0.6-0.6,0.9-1.2,0.9-2v-4.9c0-1.1-0.3-2.2-0.9-3.1c-0.6-0.9-1.6-1.4-3.2-1.4c-0.5,0-1,0.1-1.5,0.3c-0.5,0.2-1,0.4-1.4,0.7
			c2.4,0.9,3.6,2.5,3.6,4.9c0,0.8-0.2,1.6-0.6,2.3c-0.4,0.7-1,1.2-1.8,1.6c-0.8,0.4-1.7,0.6-2.7,0.6c-0.9,0-1.7-0.2-2.3-0.6
			c-0.7-0.4-1.2-1-1.6-1.7c-0.4-0.7-0.6-1.5-0.6-2.4c0-1.1,0.3-2.1,0.9-2.9c0.6-0.8,1.4-1.5,2.5-2.1c2.3-1.2,5.2-1.8,8.7-1.8
			C295.7,88.9,297.4,89.1,298.9,89.5z M292.4,103.9c-1.8,1.7-2.7,3.8-2.7,6.1c0,2.6,0.9,3.8,2.8,3.8c0.8,0,1.4-0.3,2-0.9v-11.5
			C294.2,101.9,293.5,102.7,292.4,103.9z"/>
		<path d="M334.2,91c0.5,0.7,0.9,1.5,1.2,2.6c0.3,1.1,0.4,2.6,0.4,4.4v14.7c0,1,0.1,1.8,0.3,2.4c0.2,0.6,0.5,1,0.9,1.2
			c0.4,0.2,1,0.3,1.8,0.3v1.1l-1,0c-2.6-0.1-4.8-0.2-6.6-0.2c-1.9,0-4.1,0.1-6.7,0.2l-1,0v-1.1c0.6,0,1.1-0.1,1.5-0.3
			c0.4-0.2,0.6-0.6,0.8-1.2c0.2-0.6,0.2-1.3,0.2-2.4V95.1c0-1.2-0.2-2-0.6-2.6c-0.4-0.6-1.1-0.8-2-0.8c-0.7,0-1.3,0.2-1.9,0.5
			c-0.6,0.3-1.1,0.8-1.5,1.4c-0.4,0.6-0.6,1.3-0.6,2v17.2c0,1,0.1,1.8,0.2,2.4c0.2,0.6,0.4,1,0.8,1.2c0.4,0.2,0.9,0.3,1.5,0.3v1.1
			c-0.1,0-0.5,0-1-0.1c-3.1-0.1-5.2-0.2-6.2-0.2c-1.9,0-4.3,0.1-7.1,0.2l-1.1,0v-1.1c0.8,0,1.4-0.1,1.8-0.3c0.4-0.2,0.8-0.6,1-1.2
			c0.2-0.6,0.3-1.4,0.3-2.4V95.6c0-1.7-0.2-2.9-0.7-3.6c-0.5-0.8-1.2-1.1-2.4-1.1v-1.1c1.1,0.1,2.3,0.2,3.4,0.2
			c3.8,0,6.9-0.2,9.4-0.7V93c1.6-2.7,4.5-4.1,8.6-4.1C331,88.9,333,89.6,334.2,91z"/>
		<path d="M357,89.3c1.2,0.3,2.3,0.7,3.1,1.2c1,0.6,1.8,1.4,2.4,2.3c0.6,1,0.9,2.1,0.9,3.3c0,1-0.2,1.9-0.7,2.7
			c-0.5,0.8-1.1,1.4-1.9,1.9c-0.8,0.5-1.7,0.7-2.7,0.7c-1.6,0-2.8-0.5-3.7-1.4c-0.9-0.9-1.3-2.1-1.3-3.6c0-1.3,0.4-2.5,1.3-3.4
			c0.9-1,1.9-1.6,3.2-2c-0.6-0.4-1.3-0.6-2.2-0.6c-2.3,0-4,1.2-4.9,3.7c-0.9,2.5-1.4,5.4-1.4,8.8c0,3.5,0.7,6,2,7.4
			c1.3,1.5,2.9,2.2,4.8,2.2c2.6,0,4.8-1.2,6.6-3.6l0.9,0.3c-0.5,1.6-1.2,3.1-2.2,4.5c-1,1.4-2.2,2.5-3.8,3.4
			c-1.5,0.9-3.3,1.3-5.4,1.3c-4,0-7.1-1.2-9.5-3.5c-2.4-2.4-3.6-6.1-3.6-11.3c0-3.4,0.6-6.2,1.8-8.4c1.2-2.2,2.9-3.9,4.9-4.9
			c2.1-1.1,4.5-1.6,7.2-1.6C354.4,88.9,355.7,89,357,89.3z"/>
		<path d="M387.1,109l0.9,0.3c-0.5,1.6-1.3,3.1-2.2,4.5c-1,1.4-2.2,2.5-3.8,3.4c-1.5,0.9-3.3,1.3-5.4,1.3c-3.8,0-6.8-1.2-9.1-3.5
			c-2.3-2.4-3.4-6.1-3.4-11.3c0-3.4,0.6-6.2,1.8-8.4c1.2-2.2,2.9-3.9,4.9-4.9c2.1-1.1,4.5-1.6,7.2-1.6c6.8,0,10.3,4.1,10.3,12.2h-14
			c0,0.4-0.1,1.1-0.1,2c0,3.5,0.6,6,1.8,7.4c1.2,1.5,2.7,2.2,4.4,2.2C383.1,112.7,385.3,111.4,387.1,109z M375.3,92.5
			c-0.6,1.6-1,4.1-1.2,7.5h6.3c0-2.9-0.2-5.2-0.6-7.1c-0.5-1.8-1.2-2.8-2.1-2.8C376.7,90.1,375.9,90.9,375.3,92.5z"/>
	</g>
	<g>
		<path id="body_2_" d="M173.5,48.2c-0.4,0-0.4,1.7-2.4,2.8s-14.6,5.7-16.4,6.4c-0.6,0.6-0.2,1.2-0.2,1.2s0.3,1.1,3.1,0.4
			c2-0.5,19.2-5,22.5-5.2c0.9-0.1,3.8,0.3,6,0.2c2.2-0.1,6.4-0.3,10.3-1.7c26-8.9,29.4-9.3,31.5-10c0.7-0.5-0.2-4,1.7-4.4
			c2-0.4,3.4,2.9,3.8,3.1c0.3,0.1,2.7-1.2,5.3-1.7c2.6-0.5,5.7-0.7,5.9-1c0.3-0.4-0.6-1.3-2.5-1.6c-0.6-0.1-2.8,0.3-3.6,0.2
			c-1-0.1-3.7-2.2-6.1-1.8c-2.6,0.4-1.2,0.3-5.9,3.1c-1.6,1-9.6,3.5-13.4,4.7c-5.7,1.8-12.6,3.9-13.8,3.8c-0.6-0.1-4.5-2.4-9.4-6.9
			c-4.9-4.5-11.4-9.7-14.7-26.6c-0.6-3.2-1.4-12.4-3.3-11.8c-1.2,0.4-0.5,2.3-0.3,3c0.2,0.6,2.7,8,2,8.3c-2,0.9-2.7-11.4-5.2-11
			c-3,0.5,4.2,11.4,2.7,11.7c-2.3,0.4-4-11.1-6.5-9.7c-2,1.1,5.3,10.1,4.5,10.9c-2,1.9-5.3-10.1-7.4-7.9c-1.6,1.8,6.7,8.8,5.4,10.5
			c-1.3,1.6-5.5-8-6.7-6.2c-1.9,2.8,7.2,8.1,5.8,10.3c-0.9,1.5-6.1-7.5-6.6-4.4c-0.4,2.6,5.2,5.3,6,7.8c0.2,0.5-0.3,1.1-1,0.8
			c-1.7-0.7-2.8-4.1-4.1-4.5c-1.9-0.5,0.6,6.9,3,10.8c2.4,4,5.5,9.3,10.7,15.1c1.1,1.1,2.7,2.7,6.7,4.1c3,1,5.5,0.7,5.8,1
			c0.1,0.2,0.1,0.2,0,0.2c-0.2,0.1-2.4,0.2-4-0.1c-1.6-0.2-3.4-0.4-6-1.8C174.6,49.3,173.9,48.1,173.5,48.2z"/>
		<path id="wing_2_" d="M199.5,42.3c0.3,0.1,1.3-9.5,1.7-20c0.4-8.8,1.9-18.7-0.1-18c-1.7,0.6,0.3,8.1-1.1,8.1
			c-1.4,0,0.3-9.3-1.8-8.9c-2.5,0.5,1.6,9-0.2,9.2c-2.1,0.2-1.2-9.9-3.5-8.7c-2,1.1,3.2,9,1.1,9.7c-1.5,0.5-1.8-10.1-4.1-8.4
			c-1.5,1.1,3.7,8.4,2,9.6c-1.6,1-2.5-9-4.4-7.5c-1.9,1.5,3.9,7.8,2.5,9c-1.7,1.4-2.8-7.8-4.7-5.8c-1.4,1.5,4.3,6.6,3.1,7.7
			c-1.3,1.2-3.7-6.4-4.8-4.1c-1.1,2.2,4.5,5,3.6,6.2c-1.4,1.9-3.7-4.7-4.7-2.5c-1,2.1,4.9,4.4,3.5,5.6c-1.4,1.1-3.2-3.1-3.7-2.9
			c-1.8,0.5,0.3,12.1,0.5,12.4s2.7,3.3,3.1,3.3c0.4,0,0.2-11.8,9-14.8C202.6,19.4,199.1,42.2,199.5,42.3z"/>
	</g>
</g>
</svg>
