<?xml version="1.0" encoding="utf-8"?>
<!-- Generator: Adobe Illustrator 18.1.1, SVG Export Plug-In . SVG Version: 6.00 Build 0)  -->
<svg version="1.1" id="gooseLogo" xmlns="http://www.w3.org/2000/svg" xmlns:xlink="http://www.w3.org/1999/xlink" x="0px"
	 y="0px" viewBox="0 0 614.2 86.7" enable-background="new 0 0 614.2 86.7" xml:space="preserve">
<g id="logo">
	<g>
		<g class="name">
			<path d="M21.1,27.9c-0.7,0.3-1.2,0.8-1.5,1.6c-0.3,0.8-0.4,2-0.4,3.7v34.5c0,1.3,0.1,2.2,0.3,2.8c0.2,0.6,0.5,1,0.9,1.2
				c0.5,0.2,1.2,0.3,2.2,0.3h2.2c1.5,0,3.2-0.8,5.1-2.3c1.8-1.6,3.5-3.6,4.9-6.2s2.4-5.2,2.9-8h1.5c-0.1,1.6-0.2,3.6-0.2,6.1
				c0,4.8,0.2,8.8,0.5,11.9c-3-0.1-8.1-0.2-15.3-0.2c-10.4,0-18.2,0.1-23.4,0.2V72c1.4-0.1,2.5-0.2,3.1-0.5c0.6-0.3,1.1-0.8,1.3-1.6
				c0.2-0.8,0.3-2,0.3-3.7V33.1c0-1.7-0.1-2.9-0.4-3.7c-0.2-0.8-0.7-1.3-1.3-1.6c-0.6-0.3-1.7-0.5-3.1-0.5V26
				c2.5,0.1,6.5,0.2,11.9,0.2c5.1,0,9.1-0.1,11.8-0.2v1.3C23,27.4,21.8,27.6,21.1,27.9z"/>
			<path d="M55.7,70c0.2,0.7,0.6,1.2,1.2,1.5c0.5,0.3,1.3,0.4,2.2,0.4v1.4l-1.2,0c-3.2-0.2-6-0.2-8.3-0.2c-2.3,0-5.3,0.1-8.7,0.2
				l-1.3,0v-1.4c0.9,0,1.7-0.1,2.2-0.4c0.5-0.3,0.9-0.8,1.2-1.5c0.2-0.7,0.4-1.7,0.4-2.9V45.9c0-2.1-0.3-3.6-0.8-4.5
				c-0.6-0.9-1.5-1.4-2.9-1.4v-1.4c1.4,0.1,2.8,0.2,4.1,0.2c4.6,0,8.5-0.3,11.6-0.9v29.2C55.4,68.4,55.5,69.4,55.7,70z M54.3,22.6
				c1.3,1,1.9,2.4,1.9,4.3c0,1.9-0.6,3.3-1.9,4.3c-1.3,1-3.1,1.5-5.4,1.5c-2.4,0-4.2-0.5-5.4-1.5c-1.2-1-1.9-2.4-1.9-4.3
				c0-1.9,0.6-3.3,1.9-4.3s3-1.5,5.4-1.5C51.3,21.1,53.1,21.6,54.3,22.6z"/>
			<path d="M92,38.7v1.4c-0.9,0.3-1.8,1-2.5,2s-1.5,2.5-2.2,4.5l-9,26.8c-1.2-0.1-2.2-0.2-3.2-0.2c-1,0-2.1,0.1-3.3,0.2L60.2,43.8
				c-1-2.5-2.3-3.8-3.9-3.8v-1.4c3.6,0.3,7.5,0.4,11.9,0.4c2.2,0,5.1-0.1,8.7-0.4v1.4c-1,0-1.7,0-2.2,0.1c-0.5,0-0.9,0.2-1.2,0.4
				c-0.3,0.3-0.5,0.6-0.5,1.2c0,0.2,0,0.5,0.1,0.8l7.3,20.2l3.1-9.2c0.8-2.5,1.3-4.8,1.3-6.9c0-2.1-0.5-3.7-1.4-4.8
				c-0.9-1.1-2.1-1.8-3.5-1.9v-1.4c1.7,0.2,4,0.3,7,0.3C89.4,38.9,91.1,38.8,92,38.7z"/>
			<path d="M106.8,70c0.2,0.7,0.6,1.2,1.2,1.5c0.5,0.3,1.3,0.4,2.2,0.4v1.4l-1.2,0c-3.2-0.2-6-0.2-8.3-0.2c-2.3,0-5.3,0.1-8.7,0.2
				l-1.3,0v-1.4c0.9,0,1.7-0.1,2.2-0.4c0.5-0.3,0.9-0.8,1.2-1.5c0.2-0.7,0.4-1.7,0.4-2.9V45.9c0-2.1-0.3-3.6-0.8-4.5
				c-0.6-0.9-1.5-1.4-2.9-1.4v-1.4c1.4,0.1,2.8,0.2,4.1,0.2c4.6,0,8.5-0.3,11.6-0.9v29.2C106.4,68.4,106.5,69.4,106.8,70z
				 M105.4,22.6c1.3,1,1.9,2.4,1.9,4.3c0,1.9-0.6,3.3-1.9,4.3c-1.3,1-3.1,1.5-5.4,1.5c-2.4,0-4.2-0.5-5.4-1.5
				c-1.2-1-1.9-2.4-1.9-4.3c0-1.9,0.6-3.3,1.9-4.3s3-1.5,5.4-1.5C102.3,21.1,104.1,21.6,105.4,22.6z"/>
			<path d="M144,40.4c0.7,0.8,1.2,1.9,1.5,3.2c0.3,1.4,0.5,3.2,0.5,5.4v18.1c0,1.2,0.1,2.2,0.4,2.9c0.2,0.7,0.6,1.2,1.2,1.5
				c0.5,0.3,1.3,0.4,2.2,0.4v1.4l-1.2,0c-3.2-0.2-5.9-0.2-8.1-0.2c-2.3,0-5.1,0.1-8.3,0.2l-1.2,0v-1.4c0.8,0,1.4-0.1,1.8-0.4
				c0.4-0.3,0.8-0.8,0.9-1.5c0.2-0.7,0.3-1.7,0.3-2.9V45.4c0-1.4-0.3-2.5-0.8-3.2c-0.5-0.7-1.3-1-2.5-1c-0.8,0-1.6,0.2-2.3,0.6
				c-0.7,0.4-1.3,1-1.8,1.7c-0.5,0.7-0.7,1.5-0.7,2.5v21.1c0,1.2,0.1,2.2,0.3,2.9c0.2,0.7,0.5,1.2,1,1.5c0.4,0.3,1.1,0.4,1.8,0.4
				v1.4c-0.2,0-0.6,0-1.2-0.1c-3.8-0.1-6.4-0.2-7.7-0.2c-2.3,0-5.3,0.1-8.7,0.2l-1.3,0v-1.4c0.9,0,1.7-0.1,2.2-0.4
				c0.5-0.3,0.9-0.8,1.2-1.5c0.2-0.7,0.4-1.7,0.4-2.9V45.9c0-2.1-0.3-3.6-0.8-4.5c-0.6-0.9-1.5-1.4-2.9-1.4v-1.4
				c1.4,0.1,2.8,0.2,4.1,0.2c4.6,0,8.5-0.3,11.6-0.9v4.8c2-3.3,5.6-5,10.6-5C140,37.7,142.5,38.6,144,40.4z"/>
			<path d="M181.8,65.8c1.8,1.2,2.7,3.2,2.7,6c0,2.4-0.7,4.6-2.2,6.8c-1.5,2.2-3.7,3.9-6.7,5.3c-3,1.4-6.6,2-10.9,2
				c-3.8,0-6.9-0.3-9.3-0.8s-4-1.2-5-2c-1-0.8-1.5-1.7-1.5-2.7c0-0.8,0.2-1.5,0.7-2c0.5-0.5,1.1-0.8,1.8-0.9
				c0.7-0.2,1.7-0.3,2.9-0.4c1.5-0.2,2.7-0.4,3.5-0.6c0.9-0.2,1.6-0.7,2.1-1.3h-2.2c-1.1,0-2.3-0.2-3.5-0.6
				c-1.2-0.4-2.3-1.1-3.1-2.1c-0.9-1-1.3-2.5-1.3-4.3c0-1.5,0.3-2.8,0.8-3.9s1.5-2.1,2.7-3.1s3-2,5.1-3c-2.6-0.8-4.6-2-6-3.6
				c-1.4-1.6-2.1-3.7-2.1-6.1c0-2.4,0.7-4.4,2-6s3.2-2.8,5.5-3.6c2.3-0.8,5.1-1.2,8.2-1.2c1.5,0,2.9,0.1,4,0.3
				c0-0.6-0.1-1.1-0.1-1.4c0-2.7,0.6-4.8,1.9-6.4c1.3-1.6,3.1-2.4,5.7-2.4c1.7,0,3,0.4,4.1,1.2c1.1,0.8,1.6,1.9,1.6,3.3
				c0,0.8-0.2,1.6-0.7,2.2s-1.1,1.2-2,1.6c-0.8,0.4-1.8,0.6-2.8,0.6c-1.5,0-2.7-0.3-3.7-0.9c-0.9-0.6-1.7-1.5-2.3-2.6
				c-0.3,0.9-0.5,2.1-0.5,3.5c0,0.5,0,1,0.1,1.6c3.2,0.6,5.7,1.8,7.5,3.5c1.8,1.7,2.7,4,2.7,6.8c0,2.4-0.7,4.4-2,6
				c-1.3,1.6-3.2,2.8-5.5,3.6s-5.1,1.2-8.2,1.2c-2.2,0-4.4-0.2-6.3-0.7c-0.9,0.6-1.6,1.2-2,1.6c-0.4,0.5-0.6,1-0.6,1.7
				c0,1.5,0.8,2.2,2.4,2.2h15.2C177.6,64,180,64.6,181.8,65.8z M171.1,83.8c1.3-0.6,2.3-1.5,3.1-2.7c0.7-1.1,1.1-2.5,1.1-3.9
				c0-0.7-0.2-1.3-0.7-1.6c-0.5-0.4-1.3-0.5-2.4-0.5h-10.8c-0.3,0.7-0.5,1.4-0.7,2.2c-0.1,0.8-0.2,1.5-0.2,2.1c0,1.7,0.5,3,1.5,3.9
				c1,0.9,2.5,1.4,4.5,1.4C168.3,84.8,169.8,84.4,171.1,83.8z M163.6,41.1c-0.6,1.5-0.9,3.9-0.9,7.3c0,3.4,0.3,5.9,0.9,7.3
				c0.6,1.4,1.4,2.2,2.5,2.2c1.1,0,2-0.7,2.6-2.2c0.6-1.4,0.9-3.9,0.9-7.3c0-3.4-0.3-5.9-0.9-7.3c-0.6-1.4-1.4-2.2-2.6-2.2
				C165,38.9,164.1,39.7,163.6,41.1z"/>
			<path d="M233.5,37.3c0,2.1,0.1,3.7,0.2,4.8h-1.5c-1.1-5.2-2.7-8.9-4.9-11.1c-2.2-2.3-4.7-3.4-7.4-3.4h-0.9
				c-1.2,0-2.1,0.1-2.6,0.3c-0.5,0.2-0.9,0.6-1.1,1.2c-0.2,0.6-0.3,1.5-0.3,2.8v17.1h0.7c1.6,0,3-0.4,4.3-1.3c1.3-0.9,2.3-2,3.1-3.4
				c0.8-1.3,1.4-2.7,1.7-4.1h1.5c-0.2,2.6-0.3,4.8-0.3,6.5l0,3c0,1.9,0.1,5.1,0.4,9.5h-1.5c-0.3-1.7-0.8-3.2-1.7-4.5
				c-0.8-1.3-1.9-2.4-3.2-3.2c-1.3-0.8-2.8-1.2-4.4-1.2h-0.7v15.4c0,1.9,0.2,3.2,0.6,4.1c0.4,0.9,1.1,1.4,2.1,1.7s2.6,0.4,4.8,0.4
				v1.5c-0.4,0-0.8,0-1,0c-5.1-0.1-9.4-0.2-12.8-0.2c-2.1,0-5,0-8.7,0.1l-3.3,0.1V72c1.4-0.1,2.5-0.2,3.1-0.5
				c0.6-0.3,1.1-0.8,1.3-1.6c0.2-0.8,0.3-2,0.3-3.7V33.1c0-1.7-0.1-2.9-0.4-3.7c-0.2-0.8-0.7-1.3-1.3-1.6c-0.6-0.3-1.7-0.5-3.1-0.5
				V26c5.2,0.1,13,0.2,23.4,0.2c6.5,0,11.2-0.1,14-0.2C233.6,30.2,233.5,34,233.5,37.3z"/>
			<path d="M263.1,39.7c1,1.3,1.4,2.9,1.4,4.7c0,2-0.6,3.6-1.7,4.8s-2.6,1.8-4.5,1.8c-1.9,0-3.4-0.4-4.4-1.3c-1-0.9-1.5-2-1.5-3.5
				c0-2.7,1.1-4.7,3.4-6.2c-0.8,0-1.5,0.2-2.2,0.5c-1.1,0.5-2.1,1.3-2.8,2.4c-0.8,1.1-1.1,2.3-1.1,3.6v20c0,1.4,0.2,2.5,0.6,3.3
				c0.4,0.8,1,1.4,1.8,1.7c0.8,0.3,1.9,0.5,3.3,0.5v1.4l-1.4,0c-3.7-0.2-6.8-0.2-9.4-0.2c-2.5,0-5.6,0.1-9.3,0.2l-1.4,0v-1.4
				c0.9,0,1.7-0.1,2.2-0.4c0.5-0.3,0.9-0.8,1.2-1.5c0.2-0.7,0.4-1.7,0.4-2.9V45.9c0-2.1-0.3-3.6-0.8-4.5c-0.6-0.9-1.5-1.4-2.9-1.4
				v-1.4c1.4,0.1,2.8,0.2,4.1,0.2c4.6,0,8.5-0.3,11.6-0.9v4.8c1.7-3.3,4.6-5,8.6-5C260.6,37.7,262.2,38.4,263.1,39.7z"/>
			<path d="M291.8,62.5l1.1,0.4c-0.6,2-1.5,3.8-2.7,5.5c-1.2,1.7-2.7,3.1-4.6,4.2c-1.9,1.1-4.1,1.6-6.6,1.6c-4.7,0-8.4-1.5-11.2-4.4
				c-2.8-2.9-4.2-7.5-4.2-13.9c0-4.1,0.7-7.6,2.2-10.3c1.5-2.7,3.5-4.8,6.1-6.1c2.6-1.3,5.5-2,8.9-2c8.4,0,12.6,5,12.6,15h-17.3
				c0,0.5-0.1,1.3-0.1,2.4c0,4.3,0.7,7.3,2.2,9.2c1.5,1.8,3.3,2.7,5.5,2.7C286.9,67,289.6,65.5,291.8,62.5z M277.3,42.2
				c-0.7,1.9-1.2,5-1.4,9.3h7.7c0-3.5-0.2-6.5-0.8-8.7c-0.6-2.3-1.4-3.4-2.6-3.4C279,39.3,278,40.2,277.3,42.2z"/>
			<path d="M322.7,62.5l1.1,0.4c-0.6,2-1.5,3.8-2.7,5.5c-1.2,1.7-2.7,3.1-4.6,4.2c-1.9,1.1-4.1,1.6-6.6,1.6c-4.7,0-8.4-1.5-11.2-4.4
				c-2.8-2.9-4.2-7.5-4.2-13.9c0-4.1,0.7-7.6,2.2-10.3c1.5-2.7,3.5-4.8,6.1-6.1c2.6-1.3,5.5-2,8.9-2c8.4,0,12.6,5,12.6,15H307
				c0,0.5-0.1,1.3-0.1,2.4c0,4.3,0.7,7.3,2.2,9.2c1.5,1.8,3.3,2.7,5.5,2.7C317.9,67,320.6,65.5,322.7,62.5z M308.2,42.2
				c-0.7,1.9-1.2,5-1.4,9.3h7.7c0-3.5-0.2-6.5-0.8-8.7s-1.4-3.4-2.6-3.4C309.9,39.3,308.9,40.2,308.2,42.2z"/>
			<path d="M340.6,70c0.2,0.7,0.6,1.2,1.2,1.5c0.5,0.3,1.3,0.4,2.2,0.4v1.4l-1.2,0c-3.2-0.2-6-0.2-8.3-0.2c-2.3,0-5.3,0.1-8.7,0.2
				l-1.3,0v-1.4c0.9,0,1.7-0.1,2.2-0.4c0.5-0.3,0.9-0.8,1.2-1.5c0.2-0.7,0.4-1.7,0.4-2.9v-38c0-2.1-0.3-3.6-0.8-4.5
				c-0.6-0.9-1.5-1.4-2.9-1.4v-1.4c1.4,0.1,2.8,0.2,4.1,0.2c4.7,0,8.5-0.3,11.6-0.9v46.1C340.3,68.4,340.4,69.4,340.6,70z"/>
			<path d="M367.2,38.5c1.8,0.5,3.2,1.4,4.4,2.6c0.9,0.9,1.5,2.1,1.7,3.5c0.3,1.4,0.4,3.4,0.4,5.9v17.9c0,1.1,0.1,1.8,0.2,2.2
				c0.2,0.4,0.4,0.6,0.8,0.6c0.3,0,0.7-0.1,1-0.2s0.7-0.4,1.1-0.7l0.7,1.1c-1,0.9-2.3,1.5-3.7,1.9s-3.1,0.6-5,0.6
				c-2.3,0-4.1-0.5-5.2-1.4c-1.1-0.9-1.7-2.2-1.7-3.6c-0.9,1.5-2.3,2.8-3.9,3.7c-1.7,0.9-3.6,1.4-5.6,1.4c-2.6,0-4.7-0.7-6.2-2.1
				s-2.2-3.3-2.2-5.6c0-2.3,0.7-4.2,2.1-5.7s3.5-2.8,6.4-3.7c2.4-0.8,4.1-1.5,5.3-2s2.1-1.1,2.9-1.8c0.8-0.7,1.2-1.5,1.2-2.4v-6
				c0-1.4-0.4-2.7-1.1-3.8c-0.7-1.1-2-1.7-3.9-1.7c-0.6,0-1.2,0.1-1.8,0.3c-0.6,0.2-1.2,0.5-1.7,0.8c3,1.1,4.5,3.1,4.5,6
				c0,1-0.3,2-0.8,2.8c-0.5,0.8-1.3,1.5-2.3,2c-1,0.5-2.1,0.8-3.4,0.8c-1.1,0-2-0.3-2.9-0.8c-0.8-0.5-1.5-1.2-1.9-2.1
				c-0.5-0.9-0.7-1.9-0.7-3c0-1.3,0.4-2.5,1.1-3.6c0.8-1,1.8-1.9,3-2.6c2.8-1.4,6.4-2.2,10.7-2.2C363.3,37.7,365.4,38,367.2,38.5z
				 M359.2,56.2c-2.2,2.1-3.3,4.6-3.3,7.5c0,3.2,1.1,4.7,3.4,4.7c0.9,0,1.8-0.4,2.5-1.1V53.2C361.5,53.8,360.6,54.8,359.2,56.2z"/>
			<path d="M410.7,40.4c0.7,0.8,1.2,1.9,1.5,3.2c0.3,1.4,0.5,3.2,0.5,5.4v18.1c0,1.2,0.1,2.2,0.4,2.9c0.2,0.7,0.6,1.2,1.2,1.5
				c0.5,0.3,1.3,0.4,2.2,0.4v1.4l-1.2,0c-3.2-0.2-5.9-0.2-8.1-0.2c-2.3,0-5.1,0.1-8.3,0.2l-1.2,0v-1.4c0.8,0,1.4-0.1,1.8-0.4
				c0.4-0.3,0.8-0.8,0.9-1.5c0.2-0.7,0.3-1.7,0.3-2.9V45.4c0-1.4-0.3-2.5-0.8-3.2c-0.5-0.7-1.3-1-2.5-1c-0.8,0-1.6,0.2-2.3,0.6
				c-0.7,0.4-1.3,1-1.8,1.7c-0.5,0.7-0.7,1.5-0.7,2.5v21.1c0,1.2,0.1,2.2,0.3,2.9c0.2,0.7,0.5,1.2,1,1.5c0.4,0.3,1.1,0.4,1.8,0.4
				v1.4c-0.2,0-0.6,0-1.2-0.1c-3.8-0.1-6.4-0.2-7.7-0.2c-2.3,0-5.3,0.1-8.7,0.2l-1.3,0v-1.4c0.9,0,1.7-0.1,2.2-0.4
				c0.5-0.3,0.9-0.8,1.2-1.5c0.2-0.7,0.4-1.7,0.4-2.9V45.9c0-2.1-0.3-3.6-0.8-4.5c-0.6-0.9-1.5-1.4-2.9-1.4v-1.4
				c1.4,0.1,2.8,0.2,4.1,0.2c4.6,0,8.5-0.3,11.6-0.9v4.8c2-3.3,5.6-5,10.6-5C406.7,37.7,409.2,38.6,410.7,40.4z"/>
			<path d="M438.6,38.3c1.5,0.4,2.8,0.9,3.8,1.5c1.2,0.7,2.2,1.7,2.9,2.9s1.1,2.6,1.1,4.1c0,1.2-0.3,2.3-0.8,3.3
				c-0.6,1-1.3,1.8-2.3,2.3c-1,0.6-2.1,0.8-3.3,0.8c-1.9,0-3.4-0.6-4.5-1.7c-1.1-1.1-1.6-2.6-1.6-4.4c0-1.6,0.5-3,1.6-4.2
				c1.1-1.2,2.4-2,3.9-2.5c-0.7-0.5-1.6-0.8-2.7-0.8c-2.9,0-4.9,1.5-6,4.6c-1.2,3.1-1.7,6.7-1.7,10.8c0,4.3,0.8,7.3,2.4,9.2
				c1.6,1.8,3.6,2.7,5.9,2.7c3.2,0,5.9-1.5,8.1-4.5l1.1,0.4c-0.6,2-1.5,3.8-2.7,5.5c-1.2,1.7-2.8,3.1-4.6,4.2
				c-1.9,1.1-4.1,1.6-6.6,1.6c-4.9,0-8.8-1.5-11.7-4.4c-2.9-2.9-4.4-7.5-4.4-13.9c0-4.1,0.7-7.6,2.2-10.3c1.5-2.7,3.5-4.8,6.1-6.1
				c2.6-1.3,5.5-2,8.9-2C435.4,37.7,437.1,37.9,438.6,38.3z"/>
			<path d="M475.7,62.5l1.1,0.4c-0.6,2-1.5,3.8-2.7,5.5c-1.2,1.7-2.7,3.1-4.6,4.2c-1.9,1.1-4.1,1.6-6.6,1.6c-4.7,0-8.4-1.5-11.2-4.4
				s-4.2-7.5-4.2-13.9c0-4.1,0.7-7.6,2.2-10.3c1.5-2.7,3.5-4.8,6.1-6.1c2.6-1.3,5.5-2,8.9-2c8.4,0,12.6,5,12.6,15H460
				c0,0.5-0.1,1.3-0.1,2.4c0,4.3,0.7,7.3,2.2,9.2c1.5,1.8,3.3,2.7,5.5,2.7C470.8,67,473.5,65.5,475.7,62.5z M461.2,42.2
				c-0.7,1.9-1.2,5-1.4,9.3h7.7c0-3.5-0.2-6.5-0.8-8.7s-1.4-3.4-2.6-3.4C462.9,39.3,461.9,40.2,461.2,42.2z"/>
		</g>
		<g class="goose">
			<path id="body_1_" d="M511.5,67.8c-0.6,0.1-0.5,2.4-3.4,4s-21,8.2-23.6,9.1c-0.8,0.8-0.3,1.7-0.3,1.7s0.5,1.5,4.4,0.6
				c2.9-0.7,27.6-7.2,32.2-7.5c1.3-0.1,5.5,0.4,8.6,0.3c3.1-0.1,9.2-0.5,14.8-2.4c37.3-12.8,42.1-13.3,45.1-14.3
				c0.9-0.8-0.3-5.7,2.5-6.3c2.8-0.6,4.8,4.1,5.5,4.4c0.4,0.2,3.9-1.7,7.6-2.4c3.7-0.7,8.1-1.1,8.5-1.5c0.5-0.6-0.8-1.9-3.6-2.4
				c-0.8-0.1-4,0.5-5.1,0.3c-1.5-0.2-5.2-3.2-8.7-2.6c-3.7,0.6-1.7,0.5-8.5,4.5c-2.3,1.4-13.7,5-19.2,6.8
				c-8.1,2.6-18.1,5.6-19.8,5.5c-0.8-0.1-6.4-3.5-13.5-9.9c-7.1-6.4-16.4-13.9-21.1-38.1c-0.9-4.6-1.9-17.7-4.7-16.9
				c-1.7,0.5-0.7,3.3-0.4,4.2s3.9,11.4,2.9,11.9c-2.9,1.3-3.9-16.3-7.5-15.7c-4.3,0.7,6.1,16.4,3.9,16.7c-3.3,0.5-5.7-15.9-9.3-13.9
				c-2.9,1.6,7.6,14.5,6.4,15.7c-2.8,2.7-7.6-14.5-10.6-11.3c-2.4,2.5,9.7,12.6,7.7,15c-1.8,2.3-7.8-11.4-9.6-8.9
				c-2.7,4,10.3,11.6,8.3,14.7c-1.3,2.1-8.7-10.7-9.5-6.4c-0.6,3.7,7.5,7.5,8.6,11.1c0.2,0.7-0.4,1.6-1.4,1.2c-2.4-1-4-5.9-5.9-6.4
				c-2.7-0.7,0.9,9.8,4.3,15.5c3.4,5.7,7.9,13.3,15.3,21.6c1.6,1.6,3.8,3.8,9.5,5.8c4.3,1.5,7.9,1,8.3,1.4c0.2,0.2,0.2,0.2,0,0.3
				c-0.3,0.1-3.5,0.2-5.7-0.1c-2.3-0.3-4.9-0.6-8.6-2.6C513.1,69.4,512.1,67.7,511.5,67.8z"/>
			<path id="wing_1_" d="M548.7,59.3c0.5,0.1,1.9-13.6,2.5-28.6c0.5-12.6,2.7-26.8-0.1-25.8c-2.5,0.8,0.5,11.6-1.6,11.5
				c-2.1,0,0.4-13.3-2.6-12.7c-3.6,0.7,2.3,12.9-0.3,13.1c-3,0.3-1.7-14.2-5-12.4c-2.9,1.5,4.5,12.9,1.5,13.9
				c-2.1,0.7-2.5-14.5-5.9-12C535,8,542.5,18.4,540,20c-2.2,1.5-3.5-12.9-6.3-10.7c-2.8,2.1,5.6,11.1,3.6,12.8
				c-2.4,2.1-4-11.2-6.8-8.3c-2.1,2.1,6.2,9.5,4.5,11.1c-1.9,1.8-5.3-9.2-6.9-5.9c-1.6,3.2,6.5,7.2,5.2,8.9
				c-1.9,2.7-5.3-6.7-6.8-3.5c-1.4,3.1,7,6.4,5,8c-2,1.6-4.6-4.4-5.3-4.2c-2.6,0.8,0.4,17.3,0.7,17.8c0.3,0.4,3.9,4.8,4.5,4.8
				c0.6,0,0.2-16.9,12.8-21.2C553.2,26.6,548.2,59.2,548.7,59.3z"/>
		</g>
	</g>
</g>
</svg>
