<?xml version="1.0" encoding="utf-8"?>
<!-- Generator: Adobe Illustrator 18.1.1, SVG Export Plug-In . SVG Version: 6.00 Build 0)  -->
<svg version="1.1" id="Layer_1" xmlns="http://www.w3.org/2000/svg" xmlns:xlink="http://www.w3.org/1999/xlink" x="0px" y="0px"
	 viewBox="0 0 130.7 134" enable-background="new 0 0 130.7 134" xml:space="preserve">
<path fill="#FFFFFF" d="M126.7,118.7l-22.4-22.4c-0.9-0.9-2-1.3-3.2-1.3c-1.1,0-2.3,0.4-3.2,1.3l0,0L92.6,91
	c8.4-9.2,13.6-21.4,13.6-34.9c0-28.5-23.2-51.6-51.6-51.6C26.2,4.5,3,27.7,3,56.1c0,28.5,23.2,51.6,51.6,51.6
	c13.4,0,25.7-5.2,34.9-13.6l5.3,5.3c-1.8,1.8-1.8,4.6,0,6.3l22.4,22.4c0.9,0.9,2,1.3,3.2,1.3c1.1,0,2.3-0.4,3.2-1.3l3.2-3.2
	C128.4,123.3,128.4,120.4,126.7,118.7L126.7,118.7z M54.6,103.2c-26,0-47.1-21.1-47.1-47.1C7.5,30.1,28.6,9,54.6,9
	c26,0,47.1,21.1,47.1,47.1C101.7,82.1,80.6,103.2,54.6,103.2L54.6,103.2z M120.3,125l-22.4-22.4l3.2-3.2l22.4,22.4L120.3,125z
	 M120.3,125"/>
</svg>
