<?xml version="1.0" encoding="utf-8"?>
<!-- Generator: Adobe Illustrator 18.1.1, SVG Export Plug-In . SVG Version: 6.00 Build 0)  -->
<svg version="1.1" id="Layer_1" xmlns="http://www.w3.org/2000/svg" xmlns:xlink="http://www.w3.org/1999/xlink" x="0px" y="0px"
	 viewBox="0 0 792 612" enable-background="new 0 0 792 612" xml:space="preserve">
<path fill="#1DBBBD" d="M81,593.5c-1.3,0-2.6,0-3.9,0c-7.6-1.3-12.9-7.6-12.9-16.8c0-343.3,274-398.7,343.3-407.6V35.4
	c0-6.3,3.9-11.6,8.9-15.5c5.3-2.6,12.9-1.3,18.1,2.6l313.9,255.8c3.9,2.6,6.3,7.6,6.3,12.9c0,5.3-2.6,10.2-6.3,12.9L435.9,545.7
	c-5.3,3.9-11.6,5.3-18.1,1.3c-5.3-2.6-8.9-8.9-8.9-15.5V401.8c-60.4,7.6-257.1,44.9-313.9,181.2C92.6,589.6,87.3,593.5,81,593.5z
	 M439.8,70v113.2c0,8.9-6.3,16.8-15.5,16.8c-12.9,0-288.1,15.5-322.8,311.3c103-124.8,313.9-143.9,324.1-143.9
	c5.3,0,8.9,1.3,12.9,3.9c3.9,2.6,5.3,7.6,5.3,11.6v115.8l267.4-207L439.8,70z"/>
</svg>
