<svg xmlns="http://www.w3.org/2000/svg" xmlns:xlink="http://www.w3.org/1999/xlink" version="1.1" x="0px" y="0px" viewBox="0 0 100 1" enable-background="new 0 0 100 100" xml:space="preserve"><path d="M73.928,13.937H62.893c-0.828,0-1.5,0.671-1.5,1.5v3.808c-0.148,0.065-0.31,0.104-0.481,0.104  c-0.663,0-1.202-0.539-1.202-1.202c0-0.829-0.672-1.5-1.5-1.5h-3.335v-2.81c0-0.829-0.672-1.5-1.5-1.5h-9.556  c-0.829,0-1.5,0.671-1.5,1.5v2.81h-5.049c-0.744,0-1.376,0.546-1.484,1.282c-0.44,2.999-2.744,5.353-5.732,5.859l-4.23,0.715  c-0.726,0.123-1.255,0.754-1.25,1.49l0.017,2.275l-0.017,2.074c-0.006,0.746,0.536,1.382,1.273,1.495l4.23,0.646  c2.987,0.456,5.282,2.54,5.712,5.185c0.118,0.726,0.745,1.259,1.48,1.259h5.049v47.236c0,0.828,0.671,1.5,1.5,1.5h9.556  c0.828,0,1.5-0.672,1.5-1.5V38.928h3.335c0.828,0,1.5-0.671,1.5-1.5c0-0.509,0.551-0.939,1.202-0.939  c0.171,0,0.333,0.032,0.481,0.085v3.564c0,0.829,0.672,1.5,1.5,1.5h11.034c0.828,0,1.5-0.671,1.5-1.5V15.437  C75.428,14.608,74.756,13.937,73.928,13.937z M45.319,15.336h6.556v1.309h-6.556V15.336z M51.875,84.664h-6.556V38.928h6.556V84.664  z M60.912,33.488c-1.751,0-3.255,1.009-3.886,2.439h-18.58c-1.071-3.321-4.107-5.829-7.917-6.41l-2.946-0.45l0.006-0.799  l-0.008-1.021l2.972-0.502c3.839-0.65,6.888-3.432,7.926-7.099h18.507c0.605,1.579,2.137,2.702,3.926,2.702  c0.165,0,0.321-0.031,0.481-0.05v11.237C61.233,33.518,61.077,33.488,60.912,33.488z M72.428,38.637h-8.034V16.937h8.034V38.637z"/></svg>